# xmcd CD database file
#
# Track frame offsets:
#	150
#	12937
#	36310
#	55569
#	72056
#	86315
#	100364
#	116215
#	135076
#	156778
#	180400
#	199404
#	213615
#	232533
#	257246
#
# Disc length: 3589 seconds
#
# Revision: 0
# Processed by: cddbd v1.5.2PL0 Copyright (c) Steve Scherf et al.
# Submitted via: CDex 1.70beta2
#
DISCID=c00e030f
DTITLE=Tambognola Sconnection - Band On The Roots
DYEAR=2007
DGENRE=Blues
TTITLE0=Messin'whit the kid
TTITLE1=Volver Volver
TTITLE2=Holy Cow
TTITLE3=Old Town Boy
TTITLE4=Perfidia
TTITLE5=Folsom Prison Blues
TTITLE6=Ophelia
TTITLE7=Notturno delle tre
TTITLE8=Besame Mucho
TTITLE9=She's a Woman
TTITLE10=Money talks
TTITLE11=Misty
TTITLE12=Coconut
TTITLE13=Everytime You Go Away
TTITLE14=Corrina Corrina
EXTD=YEAR: 2007
EXTT0=
EXTT1=
EXTT2=
EXTT3=
EXTT4=
EXTT5=
EXTT6=
EXTT7=
EXTT8=
EXTT9=
EXTT10=
EXTT11=
EXTT12=
EXTT13=
EXTT14=
PLAYORDER=
